<svg viewBox="472 0 885 302" xmlns="http://www.w3.org/2000/svg">
  <defs>
    <linearGradient x1="50%" y1="100.12%" x2="50%" y2=".12%" id="linearGradient-1">
      <stop stop-color="#FFF" offset="0%"/>
      <stop stop-color="#E6E6E6" offset="100%"/>
    </linearGradient>
  </defs>
  <g id="Page-1" fill="none" fill-rule="evenodd">
    <g id="buttons" transform="translate(5 5)">
      <rect id="Rectangle-path" fill="url(#linearGradient-1)" fill-rule="nonzero" width="1374.27" height="291.67" rx="145.83"/>
      <rect id="Rectangle-path" fill="#FFF" fill-rule="nonzero" x="102.62" width="1169.03" height="87.54" rx="43.77"/>
      <rect id="Rectangle-path" stroke="#939598" stroke-width="10" width="1374.27" height="291.67" rx="145.83"/>
      <path d="M290.4 189.64c-7.82 7.55-16.2 11.33-25.12 11.33-7.6 0-13.79-2.33-18.54-7s-7.13-10.69-7.13-18.06c0-9.61 3.84-17.02 11.53-22.22 7.69-5.2 18.69-7.8 33-7.8h6.26v-7.92c0-9.03-5.15-13.55-15.45-13.55-9.14 0-18.38 2.59-27.73 7.76v-16.17a88.71 88.71 0 0 1 31.53-6c22.77 0 34.15 9.06 34.15 27.18v38.45c0 6.81 2.2 10.22 6.58 10.22 1.04-.02 2.07-.13 3.09-.32l.55 13.15a46.88 46.88 0 0 1-13.15 2.22c-9.61 0-15.8-3.78-18.54-11.33l-1.03.06zm0-12.6v-17.69h-5.55c-15.16 0-22.74 4.75-22.74 14.26a11.23 11.23 0 0 0 11.41 11.41c5.49 0 11.11-2.67 16.88-8v.02zM397.91 198.97v-16.4c-6 12.25-15.48 18.38-28.44 18.38-10.46 0-18.67-3.83-24.64-11.49-5.97-7.66-8.97-18.2-9-31.61 0-14.58 3.37-26.2 10.1-34.86 6.73-8.66 15.78-13 27.14-13 9.09 0 17.35 3.6 24.8 10.78v-46.9h23.53v125.1h-23.49zm0-64.25c-5.65-6.34-11.7-9.51-18.14-9.51-5.76 0-10.36 2.77-13.79 8.32-3.43 5.55-5.15 13-5.15 22.34 0 17.8 5.7 26.7 17.11 26.7 6.97 0 13.64-4.46 20-13.39l-.03-34.46zM505.42 198.97v-16.4c-6 12.25-15.48 18.38-28.44 18.38-10.46 0-18.67-3.83-24.64-11.49-5.97-7.66-8.97-18.2-9-31.61 0-14.58 3.37-26.2 10.1-34.86 6.73-8.66 15.78-13 27.14-13 9.09 0 17.35 3.6 24.8 10.78v-46.9h23.53v125.1h-23.49zm0-64.25c-5.65-6.34-11.7-9.51-18.14-9.51-5.76 0-10.36 2.77-13.79 8.32-3.43 5.55-5.15 13-5.15 22.34 0 17.8 5.7 26.7 17.11 26.7 6.97 0 13.64-4.46 20-13.39l-.03-34.46zM656.52 198.49c-5.6 1.64-10.01 2.46-13.23 2.46-20.33 0-30.5-9.5-30.5-28.52v-45.79h-9.75v-14.67h9.71V97.32l23.45-2.69v17.35h18.62v14.66H636.2v42.71c0 10.67 4.36 16 13.07 16a28.9 28.9 0 0 0 7.21-1.11l.04 14.25zM713.96 200.95c-13.57 0-24.36-4.1-32.37-12.32-8-8.21-12-19.27-12-33.16 0-14.05 4.03-25.14 12.08-33.28s19-12.2 32.84-12.2c13.9 0 24.87 4.07 32.92 12.2 8.05 8.13 12.08 19.17 12.08 33.12 0 14.26-4.04 25.43-12.12 33.51-8.08 8.08-19.22 12.12-33.43 12.13zm.4-14.66c13.47 0 20.2-10.33 20.2-31 0-9.45-1.78-16.93-5.35-22.42-3.57-5.5-8.47-8.24-14.7-8.24-6.18 0-11.05 2.75-14.62 8.24-3.57 5.5-5.35 13.02-5.35 22.58 0 9.45 1.77 16.95 5.31 22.5 3.54 5.55 8.37 8.33 14.5 8.34h.01zM898.75 197.07a105.52 105.52 0 0 1-27 3.88c-13.9 0-24.87-4.08-32.92-12.24s-12.08-19.27-12.08-33.32c0-14.2 4.15-25.33 12.44-33.36 8.3-8.03 19.75-12.03 34.38-12 8.27.16 16.48 1.3 24.48 3.41v17c-9.64-3.2-17.34-4.8-23.1-4.8a20.58 20.58 0 0 0-17 8.08c-4.28 5.39-6.42 12.54-6.42 21.47 0 9.14 2.31 16.46 6.93 21.95 4.62 5.5 10.79 8.24 18.5 8.24a56.89 56.89 0 0 0 21.71-4.6l.08 16.29zM963.53 189.64c-7.82 7.55-16.2 11.33-25.12 11.33-7.6 0-13.79-2.33-18.54-7s-7.13-10.69-7.12-18.06c0-9.61 3.84-17.02 11.53-22.22 7.69-5.2 18.69-7.8 33-7.8h6.26v-7.92c0-9.03-5.15-13.55-15.45-13.55-9.14 0-18.38 2.59-27.73 7.76v-16.17a88.71 88.71 0 0 1 31.53-6c22.77 0 34.15 9.06 34.15 27.18v38.45c0 6.81 2.2 10.22 6.58 10.22 1.04-.02 2.07-.13 3.09-.32l.55 13.15a46.88 46.88 0 0 1-13.15 2.22c-9.61 0-15.8-3.78-18.54-11.33l-1.04.06zm0-12.6v-17.69h-5.55c-15.16 0-22.74 4.75-22.74 14.26a11.23 11.23 0 0 0 11.41 11.41c5.5 0 11.12-2.67 16.88-8v.02zM1016.3 198.97v-87h23.45v16.4c6.07-12.25 15.32-18.38 27.73-18.38a20 20 0 0 1 4.36.48v20.92a27.19 27.19 0 0 0-9.27-1.82c-9.33 0-16.94 4.73-22.82 14.18v55.22h-23.45zM1134.9 198.49c-5.6 1.64-10.01 2.46-13.23 2.46-20.34 0-30.5-9.5-30.5-28.52v-45.79h-9.75v-14.67h9.75V97.32l23.45-2.69v17.35h18.62v14.66h-18.62v42.71c0 10.67 4.36 16 13.07 16 2.44-.06 4.86-.44 7.21-1.11v14.25z" id="Shape" fill="#000" fill-rule="nonzero"/>
    </g>
  </g>
</svg>
