<?xml version="1.0" encoding="UTF-8"?>
<svg width="1068px" height="302px" viewBox="0 0 1068 302" version="1.1" xmlns="http://www.w3.org/2000/svg" xmlns:xlink="http://www.w3.org/1999/xlink">
    <!-- Generator: Sketch 50.2 (55047) - http://www.bohemiancoding.com/sketch -->
    <title>buttons</title>
    <desc>Created with Sketch.</desc>
    <defs>
        <linearGradient x1="50%" y1="100.11657%" x2="50%" y2="0.119998629%" id="linearGradient-1">
            <stop stop-color="#FFFFFF" offset="0%"></stop>
            <stop stop-color="#E6E6E6" offset="100%"></stop>
        </linearGradient>
    </defs>
    <g id="Page-1" stroke="none" stroke-width="1" fill="none" fill-rule="evenodd">
        <g id="buttons" transform="translate(5.000000, 5.000000)">
            <rect id="Rectangle-path" fill="url(#linearGradient-1)" fill-rule="nonzero" x="0.44" y="0.24" width="1057.4" height="291.67" rx="145.83"></rect>
            <rect id="Rectangle-path" fill="#FFFFFF" fill-rule="nonzero" x="79.4" y="0.24" width="899.48" height="87.54" rx="43.77"></rect>
            <rect id="Rectangle-path" stroke="#939598" stroke-width="10" x="0.44" y="0.24" width="1057.4" height="291.67" rx="145.83"></rect>
            <path d="M267.05,196.43 L267.05,179.24 C278.67,184.1 288.6,186.53 296.84,186.53 C306.453333,186.53 311.26,183.256667 311.26,176.71 C311.26,172.483333 307.3,168.786667 299.38,165.62 L291.46,162.45 C282.846667,158.963333 276.693333,155.213333 273,151.2 C269.28336,147.143682 267.29267,141.799306 267.45,136.3 C267.45,128.06 270.593333,121.656667 276.88,117.09 C283.166667,112.523333 291.96,110.24 303.26,110.24 C311.766464,110.40842 320.233588,111.443775 328.53,113.33 L328.53,129.81 C319.13,126.536667 311.34,124.9 305.16,124.9 C295.44,124.9 290.58,127.9 290.58,133.9 C290.58,137.86 294.17,141.213333 301.35,143.96 L308.16,146.57 C318.353333,150.423333 325.443333,154.333333 329.43,158.3 C333.416667,162.266667 335.416667,167.363333 335.43,173.59 C335.43,181.776667 332.036667,188.42 325.25,193.52 C318.463333,198.62 309.63,201.17 298.75,201.17 C288.009499,201.134094 277.33123,199.537406 267.05,196.43 Z" id="Shape" fill="#000000" fill-rule="nonzero"></path>
            <path d="M431.92,196.27 C421.645233,199.41113 410.973566,201.064581 400.23,201.18 C385.703333,201.18 374.24,197.06 365.84,188.82 C357.44,180.58 353.24,169.33 353.24,155.07 C353.24,141.603333 357.083333,130.763333 364.77,122.55 C372.456667,114.336667 382.61,110.23 395.23,110.23 C407.956667,110.23 417.253333,114.23 423.12,122.23 C428.986667,130.23 431.916667,142.933333 431.91,160.34 L377.91,160.34 C379.496667,176.926667 388.606667,185.22 405.24,185.22 C413.106667,185.22 421.98,183.396667 431.86,179.75 L431.92,196.27 Z M377.65,147.15 L408.87,147.15 C408.87,132.31 404.09,124.89 394.53,124.89 C384.81,124.89 379.183333,132.31 377.65,147.15 Z" id="Shape" fill="#000000" fill-rule="nonzero"></path>
            <path d="M498.75,189.85 C490.93,197.403333 482.556667,201.18 473.63,201.18 C466.023333,201.18 459.843333,198.846667 455.09,194.18 C450.336667,189.513333 447.96,183.493333 447.96,176.12 C447.96,166.506667 451.803333,159.1 459.49,153.9 C467.176667,148.7 478.176667,146.1 492.49,146.1 L498.75,146.1 L498.75,138.18 C498.75,129.146667 493.6,124.63 483.3,124.63 C474.16,124.63 464.916667,127.216667 455.57,132.39 L455.57,116.25 C465.627761,112.349531 476.312608,110.316258 487.1,110.25 C509.866667,110.25 521.25,119.31 521.25,137.43 L521.25,175.93 C521.25,182.743333 523.443333,186.15 527.83,186.15 C528.866858,186.125466 529.900119,186.018462 530.92,185.83 L531.47,198.98 C527.214856,200.342874 522.786729,201.090436 518.32,201.2 C508.706667,201.2 502.526667,197.423333 499.78,189.87 L498.75,189.85 Z M498.75,177.25 L498.75,159.59 L493.2,159.59 C478.04,159.59 470.46,164.343333 470.46,173.85 C470.410855,176.89092 471.597189,179.82174 473.747725,181.972275 C475.89826,184.122811 478.82908,185.309145 481.87,185.26 C487.396667,185.26 493.023333,182.593333 498.75,177.26 L498.75,177.25 Z" id="Shape" fill="#000000" fill-rule="nonzero"></path>
            <path d="M551.56,199.2 L551.56,112.2 L575.01,112.2 L575.01,128.64 C581.083333,116.386667 590.326667,110.26 602.74,110.26 C604.206536,110.259664 605.668661,110.420631 607.1,110.74 L607.1,131.64 C604.139928,130.496871 601.002548,129.880902 597.83,129.82 C588.496667,129.82 580.89,134.546667 575.01,144 L575.01,199.22 L551.56,199.2 Z" id="Shape" fill="#000000" fill-rule="nonzero"></path>
            <path d="M689.5,197.3 C680.705753,199.755944 671.629955,201.060169 662.5,201.18 C648.606667,201.18 637.633333,197.1 629.58,188.94 C621.526667,180.78 617.493333,169.68 617.48,155.64 C617.48,141.433333 621.626667,130.313333 629.92,122.28 C638.213333,114.246667 649.676667,110.246667 664.31,110.28 C672.560931,110.428829 680.765016,111.556723 688.75,113.64 L688.75,130.64 C679.136667,127.526667 671.45,125.97 665.69,125.97 C659.051501,125.762351 652.720856,128.77127 648.69,134.05 C644.41,139.436667 642.27,146.593333 642.27,155.52 C642.27,164.66 644.58,171.976667 649.2,177.47 C653.82,182.963333 660.003333,185.686667 667.75,185.64 C675.218467,185.546679 682.595464,183.983612 689.46,181.04 L689.5,197.3 Z" id="Shape" fill="#000000" fill-rule="nonzero"></path>
            <path d="M711.68,199.2 L711.68,74.1 L735.13,74.1 L735.13,128.64 C742.79,116.386667 752.666667,110.26 764.76,110.26 C772.526667,110.26 778.653333,112.716667 783.14,117.63 C787.626667,122.543333 789.87,129.25 789.87,137.75 L789.87,199.23 L766.42,199.23 L766.42,143.53 C766.42,133.65 763.146667,128.71 756.6,128.71 C749.153333,128.71 741.996667,133.966667 735.13,144.48 L735.13,199.23 L711.68,199.2 Z" id="Shape" fill="#000000" fill-rule="nonzero"></path>
        </g>
    </g>
</svg>